<?xml version="1.0" encoding="UTF-8"?>
<svg xmlns="http://www.w3.org/2000/svg" xmlns:xlink="http://www.w3.org/1999/xlink" width="154" height="50" viewBox="0 0 154 50">
<path fill-rule="evenodd" fill="rgb(0%, 0%, 0%)" fill-opacity="1" d="M 76.800781 3 C 76.800781 0.601562 73.199219 0.601562 73.199219 3 C 73.199219 5.398438 76.800781 5.398438 76.800781 3 Z M 76.800781 3 "/>
<path fill-rule="evenodd" fill="rgb(0%, 0%, 0%)" fill-opacity="1" d="M 60.800781 19 C 60.800781 16.601562 57.199219 16.601562 57.199219 19 C 57.199219 21.398438 60.800781 21.398438 60.800781 19 Z M 60.800781 19 "/>
<path fill-rule="evenodd" fill="rgb(0%, 0%, 0%)" fill-opacity="1" d="M 92.800781 19 C 92.800781 16.601562 89.199219 16.601562 89.199219 19 C 89.199219 21.398438 92.800781 21.398438 92.800781 19 Z M 92.800781 19 "/>
<path fill-rule="evenodd" fill="rgb(0%, 0%, 0%)" fill-opacity="1" d="M 52.800781 31 C 52.800781 28.601562 49.199219 28.601562 49.199219 31 C 49.199219 33.398438 52.800781 33.398438 52.800781 31 Z M 52.800781 31 "/>
<path fill-rule="evenodd" fill="rgb(0%, 0%, 0%)" fill-opacity="1" d="M 68.800781 31 C 68.800781 28.601562 65.199219 28.601562 65.199219 31 C 65.199219 33.398438 68.800781 33.398438 68.800781 31 Z M 68.800781 31 "/>
<path fill-rule="evenodd" fill="rgb(0%, 0%, 0%)" fill-opacity="1" d="M 84.800781 31 C 84.800781 28.601562 81.199219 28.601562 81.199219 31 C 81.199219 33.398438 84.800781 33.398438 84.800781 31 Z M 84.800781 31 "/>
<path fill-rule="evenodd" fill="rgb(0%, 0%, 0%)" fill-opacity="1" d="M 100.800781 31 C 100.800781 28.601562 97.199219 28.601562 97.199219 31 C 97.199219 33.398438 100.800781 33.398438 100.800781 31 Z M 100.800781 31 "/>
<path fill="none" stroke-width="0.8" stroke-linecap="butt" stroke-linejoin="round" stroke="rgb(0%, 0%, 0%)" stroke-opacity="1" stroke-miterlimit="10" d="M 168 768 L 152 752 " transform="matrix(1, 0, 0, -1, -93, 771)"/>
<path fill="none" stroke-width="0.8" stroke-linecap="butt" stroke-linejoin="round" stroke="rgb(0%, 0%, 0%)" stroke-opacity="1" stroke-miterlimit="10" d="M 144 740 L 152 752 " transform="matrix(1, 0, 0, -1, -93, 771)"/>
<path fill="none" stroke-width="0.8" stroke-linecap="butt" stroke-linejoin="round" stroke="rgb(0%, 0%, 0%)" stroke-opacity="1" stroke-miterlimit="10" d="M 152 752 L 160 740 " transform="matrix(1, 0, 0, -1, -93, 771)"/>
<path fill="none" stroke-width="0.8" stroke-linecap="butt" stroke-linejoin="round" stroke="rgb(0%, 0%, 0%)" stroke-opacity="1" stroke-miterlimit="10" d="M 168 768 L 184 752 " transform="matrix(1, 0, 0, -1, -93, 771)"/>
<path fill="none" stroke-width="0.8" stroke-linecap="butt" stroke-linejoin="round" stroke="rgb(0%, 0%, 0%)" stroke-opacity="1" stroke-miterlimit="10" d="M 184 752 L 176 740 " transform="matrix(1, 0, 0, -1, -93, 771)"/>
<path fill="none" stroke-width="0.8" stroke-linecap="butt" stroke-linejoin="round" stroke="rgb(0%, 0%, 0%)" stroke-opacity="1" stroke-miterlimit="10" d="M 184 752 L 192 740 " transform="matrix(1, 0, 0, -1, -93, 771)"/>
<path fill-rule="evenodd" fill="rgb(0%, 0%, 0%)" fill-opacity="1" d="M 128.800781 3 C 128.800781 0.601562 125.199219 0.601562 125.199219 3 C 125.199219 5.398438 128.800781 5.398438 128.800781 3 Z M 128.800781 3 "/>
<path fill-rule="evenodd" fill="rgb(0%, 0%, 0%)" fill-opacity="1" d="M 112.800781 19 C 112.800781 16.601562 109.199219 16.601562 109.199219 19 C 109.199219 21.398438 112.800781 21.398438 112.800781 19 Z M 112.800781 19 "/>
<path fill-rule="evenodd" fill="rgb(0%, 0%, 0%)" fill-opacity="1" d="M 144.800781 19 C 144.800781 16.601562 141.199219 16.601562 141.199219 19 C 141.199219 21.398438 144.800781 21.398438 144.800781 19 Z M 144.800781 19 "/>
<path fill-rule="evenodd" fill="rgb(0%, 0%, 0%)" fill-opacity="1" d="M 136.800781 31 C 136.800781 28.601562 133.199219 28.601562 133.199219 31 C 133.199219 33.398438 136.800781 33.398438 136.800781 31 Z M 136.800781 31 "/>
<path fill-rule="evenodd" fill="rgb(0%, 0%, 0%)" fill-opacity="1" d="M 152.800781 31 C 152.800781 28.601562 149.199219 28.601562 149.199219 31 C 149.199219 33.398438 152.800781 33.398438 152.800781 31 Z M 152.800781 31 "/>
<path fill="none" stroke-width="0.8" stroke-linecap="butt" stroke-linejoin="round" stroke="rgb(0%, 0%, 0%)" stroke-opacity="1" stroke-miterlimit="10" d="M 220 768 L 204 752 " transform="matrix(1, 0, 0, -1, -93, 771)"/>
<path fill="none" stroke-width="0.8" stroke-linecap="butt" stroke-linejoin="round" stroke="rgb(0%, 0%, 0%)" stroke-opacity="1" stroke-miterlimit="10" d="M 220 768 L 236 752 " transform="matrix(1, 0, 0, -1, -93, 771)"/>
<path fill="none" stroke-width="0.8" stroke-linecap="butt" stroke-linejoin="round" stroke="rgb(0%, 0%, 0%)" stroke-opacity="1" stroke-miterlimit="10" d="M 236 752 L 228 740 " transform="matrix(1, 0, 0, -1, -93, 771)"/>
<path fill="none" stroke-width="0.8" stroke-linecap="butt" stroke-linejoin="round" stroke="rgb(0%, 0%, 0%)" stroke-opacity="1" stroke-miterlimit="10" d="M 236 752 L 244 740 " transform="matrix(1, 0, 0, -1, -93, 771)"/>
<path fill-rule="evenodd" fill="rgb(0%, 0%, 0%)" fill-opacity="1" d="M 128.800781 47 C 128.800781 44.601562 125.199219 44.601562 125.199219 47 C 125.199219 49.398438 128.800781 49.398438 128.800781 47 Z M 128.800781 47 "/>
<path fill-rule="evenodd" fill="rgb(0%, 0%, 0%)" fill-opacity="1" d="M 144.800781 47 C 144.800781 44.601562 141.199219 44.601562 141.199219 47 C 141.199219 49.398438 144.800781 49.398438 144.800781 47 Z M 144.800781 47 "/>
<path fill="none" stroke-width="0.8" stroke-linecap="butt" stroke-linejoin="round" stroke="rgb(0%, 0%, 0%)" stroke-opacity="1" stroke-miterlimit="10" d="M 228 740 L 220 724 " transform="matrix(1, 0, 0, -1, -93, 771)"/>
<path fill="none" stroke-width="0.8" stroke-linecap="butt" stroke-linejoin="round" stroke="rgb(0%, 0%, 0%)" stroke-opacity="1" stroke-miterlimit="10" d="M 228 740 L 236 724 " transform="matrix(1, 0, 0, -1, -93, 771)"/>
<path fill-rule="evenodd" fill="rgb(0%, 0%, 0%)" fill-opacity="1" d="M 4.800781 11 C 4.800781 8.601562 1.199219 8.601562 1.199219 11 C 1.199219 13.398438 4.800781 13.398438 4.800781 11 Z M 4.800781 11 "/>
<path fill-rule="evenodd" fill="rgb(0%, 0%, 0%)" fill-opacity="1" d="M 32.800781 3 C 32.800781 0.601562 29.199219 0.601562 29.199219 3 C 29.199219 5.398438 32.800781 5.398438 32.800781 3 Z M 32.800781 3 "/>
<path fill-rule="evenodd" fill="rgb(0%, 0%, 0%)" fill-opacity="1" d="M 24.800781 15 C 24.800781 12.601562 21.199219 12.601562 21.199219 15 C 21.199219 17.398438 24.800781 17.398438 24.800781 15 Z M 24.800781 15 "/>
<path fill-rule="evenodd" fill="rgb(0%, 0%, 0%)" fill-opacity="1" d="M 40.800781 15 C 40.800781 12.601562 37.199219 12.601562 37.199219 15 C 37.199219 17.398438 40.800781 17.398438 40.800781 15 Z M 40.800781 15 "/>
<path fill="none" stroke-width="0.8" stroke-linecap="butt" stroke-linejoin="round" stroke="rgb(0%, 0%, 0%)" stroke-opacity="1" stroke-miterlimit="10" d="M 124 768 L 116 756 " transform="matrix(1, 0, 0, -1, -93, 771)"/>
<path fill="none" stroke-width="0.8" stroke-linecap="butt" stroke-linejoin="round" stroke="rgb(0%, 0%, 0%)" stroke-opacity="1" stroke-miterlimit="10" d="M 124 768 L 132 756 " transform="matrix(1, 0, 0, -1, -93, 771)"/>
</svg>
